/* XPM */
static char * close_prelight_xpm[] = {
"32 32 30 1",
" 	c None",
".	c #33676E",
"+	c #1E575E",
"@	c #24535A",
"#	c #304B52",
"$	c #38474E",
"%	c #3C454C",
"&	c #304A52",
"*	c #24535B",
"=	c #1F575D",
"-	c #304A51",
";	c #3E454C",
">	c #3E454B",
",	c #304B51",
"'	c #1F575E",
")	c #36484F",
"!	c #36494F",
"~	c #314A51",
"{	c #464C53",
"]	c #E7E8E9",
"^	c #6E7379",
"/	c #235259",
"(	c #6B7176",
"_	c #EEEFF0",
":	c #70757A",
"<	c #38464D",
"[	c #38474D",
"}	c #3D454C",
"|	c #2F4B52",
"1	c #23535A",
"................................",
"++++++++++++++++++++++++++++++++",
"++++++++++++++++++++++++++++++++",
"++++++++++++++++++++++++++++++++",
"++++++++++++++++++++++++++++++++",
"++++++++++++++++++++++++++++++++",
"++++++++++++++++++++++++++++++++",
"++++++++++++++++++++++++++++++++",
"++++++++++++@#$%%$&*++++++++++++",
"++++++++++=-;>>>>>>>,'++++++++++",
"+++++++++=)>>>>>>>>>>!'+++++++++",
"+++++++++~>>{>>>>>>{>>,+++++++++",
"++++++++@;>{]^>>>>^]{>>/++++++++",
"++++++++#>>>(_:>>(_:>>>#++++++++",
"++++++++<>>>>(_:(_:>>>>[++++++++",
"++++++++%>>>>>^__^>>>>>}++++++++",
"++++++++}>>>>>^__^>>>>>%++++++++",
"++++++++<>>>>(_:(_:>>>>[++++++++",
"++++++++&>>>(_:>>(_:>>>|++++++++",
"++++++++*>>{]^>>>>^]{>>1++++++++",
"+++++++++,>>{>>>>>>{>>#+++++++++",
"+++++++++'!>>>>>>>>>>)'+++++++++",
"++++++++++',>>>>>>>>#'++++++++++",
"++++++++++++/#[%%[|1++++++++++++",
"++++++++++++++++++++++++++++++++",
"++++++++++++++++++++++++++++++++",
"++++++++++++++++++++++++++++++++",
"++++++++++++++++++++++++++++++++",
"++++++++++++++++++++++++++++++++",
"++++++++++++++++++++++++++++++++",
"++++++++++++++++++++++++++++++++",
"++++++++++++++++++++++++++++++++"};
