/* XPM */
static char * close_active_xpm[] = {
"32 32 31 1",
" 	c None",
".	c #33676E",
"+	c #1E575E",
"@	c #1E4E55",
"#	c #1D3A42",
"$	c #1C2D35",
"%	c #1C262E",
"&	c #1E4E56",
"*	c #1E565C",
"=	c #1C3941",
"-	c #1C252D",
";	c #1C242C",
">	c #1C252C",
",	c #1D3A41",
"'	c #1E565D",
")	c #1D3139",
"!	c #1D3239",
"~	c #1D3840",
"{	c #262D35",
"]	c #E3E4E5",
"^	c #555B61",
"/	c #51585E",
"(	c #EBECED",
"_	c #575D63",
":	c #1D3B42",
"<	c #1C2C34",
"[	c #1C2D34",
"}	c #1D262F",
"|	c #1C272F",
"1	c #1C3B42",
"2	c #1E4F56",
"................................",
"++++++++++++++++++++++++++++++++",
"++++++++++++++++++++++++++++++++",
"++++++++++++++++++++++++++++++++",
"++++++++++++++++++++++++++++++++",
"++++++++++++++++++++++++++++++++",
"++++++++++++++++++++++++++++++++",
"++++++++++++++++++++++++++++++++",
"++++++++++++@#$%%$#&++++++++++++",
"++++++++++*=-;;;;;;>,'++++++++++",
"+++++++++*);;;;;;;;;;!'+++++++++",
"+++++++++~;;{;;;;;;{;;,+++++++++",
"++++++++@-;{]^;;;;^]{;>@++++++++",
"++++++++#;;;/(_;;/(_;;;:++++++++",
"++++++++<;;;;/(_/(_;;;;[++++++++",
"++++++++%;;;;;^((^;;;;;}++++++++",
"++++++++};;;;;^((^;;;;;|++++++++",
"++++++++<;;;;/(_/(_;;;;[++++++++",
"++++++++#;;;/(_;;/(_;;;1++++++++",
"++++++++&>;{]^;;;;^]{;>2++++++++",
"+++++++++,;;{;;;;;;{;;#+++++++++",
"+++++++++'!;;;;;;;;;;)'+++++++++",
"++++++++++',>;;;;;;>#'++++++++++",
"++++++++++++@:[%%[12++++++++++++",
"++++++++++++++++++++++++++++++++",
"++++++++++++++++++++++++++++++++",
"++++++++++++++++++++++++++++++++",
"++++++++++++++++++++++++++++++++",
"++++++++++++++++++++++++++++++++",
"++++++++++++++++++++++++++++++++",
"++++++++++++++++++++++++++++++++",
"++++++++++++++++++++++++++++++++"};
