/* XPM */
static char * maximize_active_xpm[] = {
"32 32 4 1",
" 	c None",
".	c #33676E",
"+	c #1E575E",
"@	c #FFFFFF",
"................................",
"++++++++++++++++++++++++++++++++",
"++++++++++++++++++++++++++++++++",
"++++++++++++++++++++++++++++++++",
"++++++++++++++++++++++++++++++++",
"++++++++++++++++++++++++++++++++",
"++++++++++++++++++++++++++++++++",
"++++++++++++++++++++++++++++++++",
"++++++++++++++++++++++++++++++++",
"++++++++++++++++++++++++++++++++",
"++++++++++++++++++++++++++++++++",
"++++++++++++++++++++++++++++++++",
"++++++++++++@@@@@@@@++++++++++++",
"++++++++++++@++++++@++++++++++++",
"++++++++++++@++++++@++++++++++++",
"++++++++++++@++++++@++++++++++++",
"++++++++++++@++++++@++++++++++++",
"++++++++++++@++++++@++++++++++++",
"++++++++++++@++++++@++++++++++++",
"++++++++++++@@@@@@@@++++++++++++",
"++++++++++++++++++++++++++++++++",
"++++++++++++++++++++++++++++++++",
"++++++++++++++++++++++++++++++++",
"++++++++++++++++++++++++++++++++",
"++++++++++++++++++++++++++++++++",
"++++++++++++++++++++++++++++++++",
"++++++++++++++++++++++++++++++++",
"++++++++++++++++++++++++++++++++",
"++++++++++++++++++++++++++++++++",
"++++++++++++++++++++++++++++++++",
"++++++++++++++++++++++++++++++++",
"++++++++++++++++++++++++++++++++"};
