/* XPM */
static char * maximize_toggled_inactive_xpm[] = {
"32 32 5 1",
" 	c None",
".	c #33676E",
"+	c #1E575E",
"@	c #759195",
"#	c #CCCCCC",
"................................",
"++++++++++++++++++++++++++++++++",
"++++++++++++++++++++++++++++++++",
"++++++++++++++++++++++++++++++++",
"++++++++++++++++++++++++++++++++",
"++++++++++++++++++++++++++++++++",
"++++++++++++++++++++++++++++++++",
"++++++++++++++++++++++++++++++++",
"++++++++++++++++++++++++++++++++",
"++++++++++++++++++++++++++++++++",
"++++++++++++++++++++++++++++++++",
"++++++++++++++++++++++++++++++++",
"++++++++++++++@@@@@@++++++++++++",
"+++++++++++++++++++@++++++++++++",
"++++++++++++######+@++++++++++++",
"++++++++++++#++++#+@++++++++++++",
"++++++++++++#++++#+@++++++++++++",
"++++++++++++#++++#+@++++++++++++",
"++++++++++++#++++#++++++++++++++",
"++++++++++++######++++++++++++++",
"++++++++++++++++++++++++++++++++",
"++++++++++++++++++++++++++++++++",
"++++++++++++++++++++++++++++++++",
"++++++++++++++++++++++++++++++++",
"++++++++++++++++++++++++++++++++",
"++++++++++++++++++++++++++++++++",
"++++++++++++++++++++++++++++++++",
"++++++++++++++++++++++++++++++++",
"++++++++++++++++++++++++++++++++",
"++++++++++++++++++++++++++++++++",
"++++++++++++++++++++++++++++++++",
"++++++++++++++++++++++++++++++++"};
