/* XPM */
static char *menu_xpm[] = {
"32 32 6 1",
" 	c None",
"1	c #33676E",
"2	c #1E575E",
"3	c #A6BCBF",
"4	c #4B797E",
"5	c #789A9E",
"11111111111111111111111111111111",
"22222222222222222222222222222222",
"22222222222222222222222222222222",
"22222222222222222222222222222222",
"22222222222222222222222222222222",
"22222222222222222222222222222222",
"22222222222222222222222222222222",
"22222222222222222222222222222222",
"22222222222222222222222222222222",
"22222222222222222222222222222222",
"22222222222222222222222222222222",
"22222222222222222222222222222222",
"22222222222233333333222222222222",
"22222222222222222222222222222222",
"22222222222222222222222222222222",
"22222222222233333333222222222222",
"22222222222222222222222222222222",
"22222222222222222222222222222222",
"22222222222233333333222222222222",
"22222222222222222222222222222222",
"22222222222222222222222222222222",
"22222222222222222222222222222222",
"22222222222222222222222222222222",
"22222222222222222222222222222222",
"22222222222222222222222222222222",
"22222222222222222222222222222222",
"22222222222222222222222222222222",
"22222222222222222222222222222222",
"22222222222222222222222222222222",
"22222222222222222222222222222222",
"22222222222222222222222222222222",
"22222222222222222222222222222222"
};
