/* XPM */
static char * shade_toggled_inactive_xpm[] = {
"32 32 19 1",
" 	c None",
".	c #33676E",
"+	c #1E575E",
"@	c #3D6C71",
"#	c #2D6167",
"$	c #437075",
"%	c #AAB5B6",
"&	c #51797E",
"*	c #2A5F65",
"=	c #93A6A8",
"-	c #8CA1A4",
";	c #2C6067",
">	c #537A7F",
",	c #ACB6B7",
"'	c #718F92",
")	c #275D64",
"!	c #708E92",
"~	c #AEB8B9",
"{	c #245B62",
"................................",
"++++++++++++++++++++++++++++++++",
"++++++++++++++++++++++++++++++++",
"++++++++++++++++++++++++++++++++",
"++++++++++++++++++++++++++++++++",
"++++++++++++++++++++++++++++++++",
"++++++++++++++++++++++++++++++++",
"++++++++++++++++++++++++++++++++",
"++++++++++++++++++++++++++++++++",
"++++++++++++++++++++++++++++++++",
"++++++++++++++++++++++++++++++++",
"++++++++++++++++++++++++++++++++",
"++++++++++++++++++++++++++++++++",
"+++++++++@#++++++++++#@+++++++++",
"+++++++++$%&++++++++&%$+++++++++",
"++++++++++*=-;++++;-=*++++++++++",
"++++++++++++>,'))',>++++++++++++",
"+++++++++++++)!~~!)+++++++++++++",
"+++++++++++++++{{+++++++++++++++",
"++++++++++++++++++++++++++++++++",
"++++++++++++++++++++++++++++++++",
"++++++++++++++++++++++++++++++++",
"++++++++++++++++++++++++++++++++",
"++++++++++++++++++++++++++++++++",
"++++++++++++++++++++++++++++++++",
"++++++++++++++++++++++++++++++++",
"++++++++++++++++++++++++++++++++",
"++++++++++++++++++++++++++++++++",
"++++++++++++++++++++++++++++++++",
"++++++++++++++++++++++++++++++++",
"++++++++++++++++++++++++++++++++",
"++++++++++++++++++++++++++++++++"};
