/* XPM */
static char * stick_toggled_inactive_xpm[] = {
"32 32 11 1",
" 	c None",
".	c #33676E",
"+	c #1E575E",
"@	c #295F65",
"#	c #64868A",
"$	c #B6BDBE",
"%	c #CCCCCC",
"&	c #65878B",
"*	c #63868A",
"=	c #B5BDBE",
"-	c #285E64",
"................................",
"++++++++++++++++++++++++++++++++",
"++++++++++++++++++++++++++++++++",
"++++++++++++++++++++++++++++++++",
"++++++++++++++++++++++++++++++++",
"++++++++++++++++++++++++++++++++",
"++++++++++++++++++++++++++++++++",
"++++++++++++++++++++++++++++++++",
"++++++++++++++++++++++++++++++++",
"++++++++++++++++++++++++++++++++",
"++++++++++++++++++++++++++++++++",
"++++++++++++++++++++++++++++++++",
"++++++++++++++++++++++++++++++++",
"++++++++++++++@##@++++++++++++++",
"+++++++++++++@$%%$@+++++++++++++",
"+++++++++++++&%%%%#+++++++++++++",
"+++++++++++++#%%%%*+++++++++++++",
"+++++++++++++@$%%=-+++++++++++++",
"++++++++++++++@**-++++++++++++++",
"++++++++++++++++++++++++++++++++",
"++++++++++++++++++++++++++++++++",
"++++++++++++++++++++++++++++++++",
"++++++++++++++++++++++++++++++++",
"++++++++++++++++++++++++++++++++",
"++++++++++++++++++++++++++++++++",
"++++++++++++++++++++++++++++++++",
"++++++++++++++++++++++++++++++++",
"++++++++++++++++++++++++++++++++",
"++++++++++++++++++++++++++++++++",
"++++++++++++++++++++++++++++++++",
"++++++++++++++++++++++++++++++++",
"++++++++++++++++++++++++++++++++"};
