/* XPM */
static char * close_prelight_xpm[] = {
"32 32 32 1",
" 	c None",
".	c #5C8387",
"+	c #4B767A",
"@	c #4C7376",
"#	c #4D6D70",
"$	c #4F696D",
"%	c #4F686A",
"&	c #4D6B6F",
"*	c #4B7377",
"=	c #4D6C6F",
"-	c #51686A",
";	c #50686A",
">	c #4C6D6F",
",	c #4E696D",
"'	c #4D6A6D",
")	c #4E6D6F",
"!	c #576E71",
"~	c #4D6C70",
"{	c #E9ECEC",
"]	c #7C8E90",
"^	c #4A7275",
"/	c #798B8D",
"(	c #F0F2F2",
"_	c #7D8F90",
":	c #4C6C70",
"<	c #4E696C",
"[	c #4E696B",
"}	c #4F686B",
"|	c #4B7376",
"1	c #4E6A6D",
"2	c #4E696E",
"3	c #4C777B",
"................................",
"++++++++++++++++++++++++++++++++",
"++++++++++++++++++++++++++++++++",
"++++++++++++++++++++++++++++++++",
"++++++++++++++++++++++++++++++++",
"++++++++++++++++++++++++++++++++",
"++++++++++++++++++++++++++++++++",
"++++++++++++++++++++++++++++++++",
"++++++++++++@#$%%$&*++++++++++++",
"+++++++++++=-;;;;;;;>+++++++++++",
"++++++++++,;;;;;;;;;;'++++++++++",
"+++++++++);;!;;;;;;!;;~+++++++++",
"++++++++@-;!{];;;;]{!;;^++++++++",
"++++++++#;;;/(_;;/(_;;;:++++++++",
"++++++++<;;;;/(_/(_;;;;[++++++++",
"++++++++;;;;;;]((];;;;;%++++++++",
"++++++++%;;;;;]((];;;;;}++++++++",
"++++++++<;;;;/(_/(_;;;;[++++++++",
"++++++++&;;;/(_;;/(_;;;#++++++++",
"++++++++*;;!{];;;;]{!;;|++++++++",
"+++++++++>;;!;;;;;;!;;#+++++++++",
"++++++++++1;;;;;;;;;;23+++++++++",
"+++++++++++~;;;;;;;;#3++++++++++",
"++++++++++++^:[;;[#|++++++++++++",
"++++++++++++++++++++++++++++++++",
"++++++++++++++++++++++++++++++++",
"++++++++++++++++++++++++++++++++",
"++++++++++++++++++++++++++++++++",
"++++++++++++++++++++++++++++++++",
"++++++++++++++++++++++++++++++++",
"++++++++++++++++++++++++++++++++",
"++++++++++++++++++++++++++++++++"};
