/* XPM */
static char * close_inactive_xpm[] = {
"32 32 33 1",
" 	c None",
".	c #5C8387",
"+	c #4B767A",
"@	c #476F72",
"#	c #3C5F62",
"$	c #365458",
"%	c #324F52",
"&	c #3D5E62",
"*	c #466F73",
"=	c #4A7579",
"-	c #3C5E61",
";	c #324D50",
">	c #314D50",
",	c #3B5F61",
"'	c #38575B",
")	c #37585B",
"!	c #385356",
"~	c #3C5E62",
"{	c #B8BCBC",
"]	c #586D6F",
"^	c #466F72",
"/	c #556B6D",
"(	c #BEC1C1",
"_	c #596E70",
":	c #3C5F63",
"<	c #355357",
"[	c #365457",
"}	c #334F52",
"|	c #324F53",
"1	c #3D6063",
"2	c #477073",
"3	c #38585B",
"4	c #38575C",
"................................",
"++++++++++++++++++++++++++++++++",
"++++++++++++++++++++++++++++++++",
"++++++++++++++++++++++++++++++++",
"++++++++++++++++++++++++++++++++",
"++++++++++++++++++++++++++++++++",
"++++++++++++++++++++++++++++++++",
"++++++++++++++++++++++++++++++++",
"++++++++++++@#$%%$&*++++++++++++",
"++++++++++=-;>>>>>>>,=++++++++++",
"+++++++++='>>>>>>>>>>)=+++++++++",
"+++++++++->>!>>>>>>!>>~+++++++++",
"++++++++@;>!{]>>>>]{!>>^++++++++",
"++++++++#>>>/(_>>/(_>>>:++++++++",
"++++++++<>>>>/(_/(_>>>>[++++++++",
"++++++++}>>>>>]((]>>>>>%++++++++",
"++++++++%>>>>>]((]>>>>>|++++++++",
"++++++++<>>>>/(_/(_>>>>[++++++++",
"++++++++&>>>/(_>>/(_>>>1++++++++",
"++++++++*>>!{]>>>>]{!>>2++++++++",
"+++++++++,>>!>>>>>>!>>#+++++++++",
"+++++++++=3>>>>>>>>>>4++++++++++",
"++++++++++=~>>>>>>>>#+++++++++++",
"++++++++++++^:[}}[12++++++++++++",
"++++++++++++++++++++++++++++++++",
"++++++++++++++++++++++++++++++++",
"++++++++++++++++++++++++++++++++",
"++++++++++++++++++++++++++++++++",
"++++++++++++++++++++++++++++++++",
"++++++++++++++++++++++++++++++++",
"++++++++++++++++++++++++++++++++",
"++++++++++++++++++++++++++++++++"};
