/* XPM */
static char * maximize_toggled_prelight_xpm[] = {
"32 32 16 1",
" 	c None",
".	c #5C8387",
"+	c #4B767A",
"@	c #507A7E",
"#	c #5B8285",
"$	c #62878B",
"%	c #64898D",
"&	c #5A8185",
"*	c #4C777B",
"=	c #668A8E",
"-	c #5F8589",
";	c #5B8286",
">	c #B3C5C7",
",	c #4F797D",
"'	c #FFFFFF",
")	c #61878A",
"................................",
"++++++++++++++++++++++++++++++++",
"++++++++++++++++++++++++++++++++",
"++++++++++++++++++++++++++++++++",
"++++++++++++++++++++++++++++++++",
"++++++++++++++++++++++++++++++++",
"++++++++++++++++++++++++++++++++",
"++++++++++++++++++++++++++++++++",
"++++++++++++@#$%%$&@++++++++++++",
"++++++++++*#========#*++++++++++",
"+++++++++*-==========-*+++++++++",
"+++++++++;============#+++++++++",
"++++++++@=====>>>>>>===,++++++++",
"++++++++#==========>===&++++++++",
"++++++++$===''''''=>===)++++++++",
"++++++++%==='===='=>===%++++++++",
"++++++++%==='===='=>===%++++++++",
"++++++++$==='===='=>===)++++++++",
"++++++++&==='===='=====&++++++++",
"++++++++@===''''''=====,++++++++",
"+++++++++#============#+++++++++",
"+++++++++*-==========-*+++++++++",
"++++++++++*#========#*++++++++++",
"++++++++++++,&)%%)&,++++++++++++",
"++++++++++++++++++++++++++++++++",
"++++++++++++++++++++++++++++++++",
"++++++++++++++++++++++++++++++++",
"++++++++++++++++++++++++++++++++",
"++++++++++++++++++++++++++++++++",
"++++++++++++++++++++++++++++++++",
"++++++++++++++++++++++++++++++++",
"++++++++++++++++++++++++++++++++"};
