/* XPM */
static char *menu_xpm[] = {
"32 32 6 1",
" 	c None",
"1	c #5C8387",
"2	c #4B767A",
"3	c #B8C9CA",
"4	c #6F9195",
"5	c #93ADAF",
"11111111111111111111111111111111",
"22222222222222222222222222222222",
"22222222222222222222222222222222",
"22222222222222222222222222222222",
"22222222222222222222222222222222",
"22222222222222222222222222222222",
"22222222222222222222222222222222",
"22222222222222222222222222222222",
"22222222222222222222222222222222",
"22222222222222222222222222222222",
"22222222222222222222222222222222",
"22222222222222222222222222222222",
"22222222222233333333222222222222",
"22222222222222222222222222222222",
"22222222222222222222222222222222",
"22222222222233333333222222222222",
"22222222222222222222222222222222",
"22222222222222222222222222222222",
"22222222222233333333222222222222",
"22222222222222222222222222222222",
"22222222222222222222222222222222",
"22222222222222222222222222222222",
"22222222222222222222222222222222",
"22222222222222222222222222222222",
"22222222222222222222222222222222",
"22222222222222222222222222222222",
"22222222222222222222222222222222",
"22222222222222222222222222222222",
"22222222222222222222222222222222",
"22222222222222222222222222222222",
"22222222222222222222222222222222",
"22222222222222222222222222222222"
};
