/* XPM */
static char *menu_xpm[] = {
"32 32 17 1",
" 	c None",
"B	c #5C8387",
"C	c #4B767A",
"D	c #507A7E",
"E	c #5B8285",
"F	c #62878B",
"G	c #64898D",
"H	c #5A8185",
"I	c #4C777B",
"J	c #668A8E",
"K	c #5F8589",
"L	c #5B8286",
"M	c #C2D1D2",
"N	c #4F797D",
"O	c #85A1A5",
"P	c #61878A",
"Q	c #A3B9BB",
"BBBBBBBBBBBBBBBBBBBBBBBBBBBBBBBB",
"CCCCCCCCCCCCCCCCCCCCCCCCCCCCCCCC",
"CCCCCCCCCCCCCCCCCCCCCCCCCCCCCCCC",
"CCCCCCCCCCCCCCCCCCCCCCCCCCCCCCCC",
"CCCCCCCCCCCCCCCCCCCCCCCCCCCCCCCC",
"CCCCCCCCCCCCCCCCCCCCCCCCCCCCCCCC",
"CCCCCCCCCCCCCCCCCCCCCCCCCCCCCCCC",
"CCCCCCCCCCCCCCCCCCCCCCCCCCCCCCCC",
"CCCCCCCCCCCCDEFGGFHDCCCCCCCCCCCC",
"CCCCCCCCCCIEJJJJJJJJEICCCCCCCCCC",
"CCCCCCCCCIKJJJJJJJJJJKICCCCCCCCC",
"CCCCCCCCCLJJJJJJJJJJJJECCCCCCCCC",
"CCCCCCCCDJJJMMMMMMMMJJJNCCCCCCCC",
"CCCCCCCCEJJJPPPPPPPPJJJHCCCCCCCC",
"CCCCCCCCFJJJJJJJJJJJJJJPCCCCCCCC",
"CCCCCCCCGJJJMMMMMMMMJJJGCCCCCCCC",
"CCCCCCCCGJJJPPPPPPPPJJJGCCCCCCCC",
"CCCCCCCCFJJJPPPJJJJJJJJPCCCCCCCC",
"CCCCCCCCHJJJMMMMMMMMJJJHCCCCCCCC",
"CCCCCCCCDJJJPPPPPPPPJJJNCCCCCCCC",
"CCCCCCCCCEJPPJJJJJJJJJECCCCCCCCC",
"CCCCCCCCCIKJJJJJJJJJJKICCCCCCCCC",
"CCCCCCCCCCIEJJJJJJJJEICCCCCCCCCC",
"CCCCCCCCCCCCNHPGGPHNCCCCCCCCCCCC",
"CCCCCCCCCCCCCCCCCCCCCCCCCCCCCCCC",
"CCCCCCCCCCCCCCCCCCCCCCCCCCCCCCCC",
"CCCCCCCCCCCCCCCCCCCCCCCCCCCCCCCC",
"CCCCCCCCCCCCCCCCCCCCCCCCCCCCCCCC",
"CCCCCCCCCCCCCCCCCCCCCCCCCCCCCCCC",
"CCCCCCCCCCCCCCCCCCCCCCCCCCCCCCCC",
"CCCCCCCCCCCCCCCCCCCCCCCCCCCCCCCC",
"CCCCCCCCCCCCCCCCCCCCCCCCCCCCCCCC"
};
