/* XPM */
static char * shade_active_xpm[] = {
"32 32 19 1",
" 	c None",
".	c #5C8387",
"+	c #4B767A",
"@	c #517B7F",
"#	c #537C80",
"$	c #A0B6B9",
"%	c #E0E7E8",
"&	c #82A0A3",
"*	c #DEE6E6",
"=	c #A0B7B9",
"-	c #588083",
";	c #C4D2D3",
">	c #BDCCCE",
",	c #598184",
"'	c #719396",
")	c #DCE4E5",
"!	c #809EA1",
"~	c #6B8E91",
"{	c #5A8185",
"................................",
"++++++++++++++++++++++++++++++++",
"++++++++++++++++++++++++++++++++",
"++++++++++++++++++++++++++++++++",
"++++++++++++++++++++++++++++++++",
"++++++++++++++++++++++++++++++++",
"++++++++++++++++++++++++++++++++",
"++++++++++++++++++++++++++++++++",
"++++++++++++++++++++++++++++++++",
"++++++++++++++++++++++++++++++++",
"++++++++++++++++++++++++++++++++",
"++++++++++++++++++++++++++++++++",
"++++++++++++++++++++++++++++++++",
"+++++++++++++++@@+++++++++++++++",
"+++++++++++++#$%%$#+++++++++++++",
"++++++++++++&*=##=*&++++++++++++",
"++++++++++-;>,++++,>;-++++++++++",
"+++++++++')!++++++++!)'+++++++++",
"+++++++++~{++++++++++{~+++++++++",
"++++++++++++++++++++++++++++++++",
"++++++++++++++++++++++++++++++++",
"++++++++++++++++++++++++++++++++",
"++++++++++++++++++++++++++++++++",
"++++++++++++++++++++++++++++++++",
"++++++++++++++++++++++++++++++++",
"++++++++++++++++++++++++++++++++",
"++++++++++++++++++++++++++++++++",
"++++++++++++++++++++++++++++++++",
"++++++++++++++++++++++++++++++++",
"++++++++++++++++++++++++++++++++",
"++++++++++++++++++++++++++++++++",
"++++++++++++++++++++++++++++++++"};
