/* XPM */
static char * shade_prelight_xpm[] = {
"32 32 30 1",
" 	c None",
".	c #5C8387",
"+	c #4B767A",
"@	c #507A7E",
"#	c #5B8285",
"$	c #62878B",
"%	c #64898D",
"&	c #5A8185",
"*	c #4C777B",
"=	c #668A8E",
"-	c #5F8589",
";	c #5B8286",
">	c #4F797D",
",	c #6B8E92",
"'	c #6D9093",
")	c #AEC1C3",
"!	c #E5EBEB",
"~	c #61878A",
"{	c #95AEB1",
"]	c #E3E9EA",
"^	c #AFC2C4",
"/	c #719296",
"(	c #CDD8DA",
"_	c #C7D4D5",
":	c #729397",
"<	c #86A3A6",
"[	c #E1E8E9",
"}	c #93ACAF",
"|	c #819FA2",
"1	c #739497",
"................................",
"++++++++++++++++++++++++++++++++",
"++++++++++++++++++++++++++++++++",
"++++++++++++++++++++++++++++++++",
"++++++++++++++++++++++++++++++++",
"++++++++++++++++++++++++++++++++",
"++++++++++++++++++++++++++++++++",
"++++++++++++++++++++++++++++++++",
"++++++++++++@#$%%$&@++++++++++++",
"++++++++++*#========#*++++++++++",
"+++++++++*-==========-*+++++++++",
"+++++++++;============#+++++++++",
"++++++++@==============>++++++++",
"++++++++#======,,======&++++++++",
"++++++++$====')!!)'====~++++++++",
"++++++++%==={]^''^]{===%++++++++",
"++++++++%=/(_:====:_(/=%++++++++",
"++++++++$<[}========}[<~++++++++",
"++++++++&|1==========1|&++++++++",
"++++++++@==============>++++++++",
"+++++++++#============#+++++++++",
"+++++++++*-==========-*+++++++++",
"++++++++++*#========#*++++++++++",
"++++++++++++>&~%%~&>++++++++++++",
"++++++++++++++++++++++++++++++++",
"++++++++++++++++++++++++++++++++",
"++++++++++++++++++++++++++++++++",
"++++++++++++++++++++++++++++++++",
"++++++++++++++++++++++++++++++++",
"++++++++++++++++++++++++++++++++",
"++++++++++++++++++++++++++++++++",
"++++++++++++++++++++++++++++++++"};
