/* XPM */
static char * stick_toggled_inactive_xpm[] = {
"32 32 11 1",
" 	c None",
".	c #5C8387",
"+	c #4B767A",
"@	c #537C7F",
"#	c #7F999B",
"$	c #BBC1C1",
"%	c #CCCCCC",
"&	c #BCC1C2",
"*	c #7F989B",
"=	c #7E989B",
"-	c #537B7F",
"................................",
"++++++++++++++++++++++++++++++++",
"++++++++++++++++++++++++++++++++",
"++++++++++++++++++++++++++++++++",
"++++++++++++++++++++++++++++++++",
"++++++++++++++++++++++++++++++++",
"++++++++++++++++++++++++++++++++",
"++++++++++++++++++++++++++++++++",
"++++++++++++++++++++++++++++++++",
"++++++++++++++++++++++++++++++++",
"++++++++++++++++++++++++++++++++",
"++++++++++++++++++++++++++++++++",
"++++++++++++++++++++++++++++++++",
"++++++++++++++@##@++++++++++++++",
"+++++++++++++@$%%&@+++++++++++++",
"+++++++++++++#%%%%#+++++++++++++",
"+++++++++++++*%%%%=+++++++++++++",
"+++++++++++++@&%%$-+++++++++++++",
"++++++++++++++@==-++++++++++++++",
"++++++++++++++++++++++++++++++++",
"++++++++++++++++++++++++++++++++",
"++++++++++++++++++++++++++++++++",
"++++++++++++++++++++++++++++++++",
"++++++++++++++++++++++++++++++++",
"++++++++++++++++++++++++++++++++",
"++++++++++++++++++++++++++++++++",
"++++++++++++++++++++++++++++++++",
"++++++++++++++++++++++++++++++++",
"++++++++++++++++++++++++++++++++",
"++++++++++++++++++++++++++++++++",
"++++++++++++++++++++++++++++++++",
"++++++++++++++++++++++++++++++++"};
