/* XPM */
static char * stick_prelight_xpm[] = {
"32 32 19 1",
" 	c None",
".	c #5C8387",
"+	c #4B767A",
"@	c #507A7E",
"#	c #5B8285",
"$	c #62878B",
"%	c #64898D",
"&	c #5A8185",
"*	c #4C777B",
"=	c #668A8E",
"-	c #5F8589",
";	c #5B8286",
">	c #4F797D",
",	c #678B8F",
"'	c #9DB4B7",
")	c #61878A",
"!	c #9EB5B7",
"~	c #FFFFFF",
"{	c #9DB4B6",
"................................",
"++++++++++++++++++++++++++++++++",
"++++++++++++++++++++++++++++++++",
"++++++++++++++++++++++++++++++++",
"++++++++++++++++++++++++++++++++",
"++++++++++++++++++++++++++++++++",
"++++++++++++++++++++++++++++++++",
"++++++++++++++++++++++++++++++++",
"++++++++++++@#$%%$&@++++++++++++",
"++++++++++*#========#*++++++++++",
"+++++++++*-==========-*+++++++++",
"+++++++++;============#+++++++++",
"++++++++@==============>++++++++",
"++++++++#==============&++++++++",
"++++++++$=====,'',=====)++++++++",
"++++++++%=====!~~'=====%++++++++",
"++++++++%====='~~{=====%++++++++",
"++++++++$=====,{{,=====)++++++++",
"++++++++&==============&++++++++",
"++++++++@==============>++++++++",
"+++++++++#============#+++++++++",
"+++++++++*-==========-*+++++++++",
"++++++++++*#========#*++++++++++",
"++++++++++++>&)%%)&>++++++++++++",
"++++++++++++++++++++++++++++++++",
"++++++++++++++++++++++++++++++++",
"++++++++++++++++++++++++++++++++",
"++++++++++++++++++++++++++++++++",
"++++++++++++++++++++++++++++++++",
"++++++++++++++++++++++++++++++++",
"++++++++++++++++++++++++++++++++",
"++++++++++++++++++++++++++++++++"};
