/* XPM */
static char * stick_toggled_active_xpm[] = {
"32 32 13 1",
" 	c None",
".	c #5C8387",
"+	c #4B767A",
"@	c #567F82",
"#	c #93ADAF",
"$	c #E8EEEE",
"%	c #FFFFFF",
"&	c #E8EDEE",
"*	c #94AEB0",
"=	c #94ADB0",
"-	c #92ACAF",
";	c #E7EDED",
">	c #567E82",
"................................",
"++++++++++++++++++++++++++++++++",
"++++++++++++++++++++++++++++++++",
"++++++++++++++++++++++++++++++++",
"++++++++++++++++++++++++++++++++",
"++++++++++++++++++++++++++++++++",
"++++++++++++++++++++++++++++++++",
"++++++++++++++++++++++++++++++++",
"++++++++++++++++++++++++++++++++",
"++++++++++++++++++++++++++++++++",
"++++++++++++++++++++++++++++++++",
"++++++++++++++++++++++++++++++++",
"++++++++++++++++++++++++++++++++",
"++++++++++++++@##@++++++++++++++",
"+++++++++++++@$%%&@+++++++++++++",
"+++++++++++++*%%%%#+++++++++++++",
"+++++++++++++=%%%%-+++++++++++++",
"+++++++++++++@&%%;>+++++++++++++",
"++++++++++++++@-->++++++++++++++",
"++++++++++++++++++++++++++++++++",
"++++++++++++++++++++++++++++++++",
"++++++++++++++++++++++++++++++++",
"++++++++++++++++++++++++++++++++",
"++++++++++++++++++++++++++++++++",
"++++++++++++++++++++++++++++++++",
"++++++++++++++++++++++++++++++++",
"++++++++++++++++++++++++++++++++",
"++++++++++++++++++++++++++++++++",
"++++++++++++++++++++++++++++++++",
"++++++++++++++++++++++++++++++++",
"++++++++++++++++++++++++++++++++",
"++++++++++++++++++++++++++++++++"};
