/* XPM */
static char * stick_toggled_prelight_xpm[] = {
"32 32 24 1",
" 	c None",
".	c #5C8387",
"+	c #4B767A",
"@	c #507A7E",
"#	c #5B8285",
"$	c #62878B",
"%	c #64898D",
"&	c #5A8185",
"*	c #4C777B",
"=	c #668A8E",
"-	c #5F8589",
";	c #5B8286",
">	c #4F797D",
",	c #709195",
"'	c #A3B9BB",
")	c #ECF0F1",
"!	c #FFFFFF",
"~	c #EBF0F0",
"{	c #61878A",
"]	c #A4BABC",
"^	c #A4B9BC",
"/	c #A3B8BB",
"(	c #EBEFF0",
"_	c #6F9195",
"................................",
"++++++++++++++++++++++++++++++++",
"++++++++++++++++++++++++++++++++",
"++++++++++++++++++++++++++++++++",
"++++++++++++++++++++++++++++++++",
"++++++++++++++++++++++++++++++++",
"++++++++++++++++++++++++++++++++",
"++++++++++++++++++++++++++++++++",
"++++++++++++@#$%%$&@++++++++++++",
"++++++++++*#========#*++++++++++",
"+++++++++*-==========-*+++++++++",
"+++++++++;============#+++++++++",
"++++++++@==============>++++++++",
"++++++++#=====,'',=====&++++++++",
"++++++++$====,)!!~,===={++++++++",
"++++++++%====]!!!!'====%++++++++",
"++++++++%====^!!!!/====%++++++++",
"++++++++$====,~!!(_===={++++++++",
"++++++++&=====,//_=====&++++++++",
"++++++++@==============>++++++++",
"+++++++++#============#+++++++++",
"+++++++++*-==========-*+++++++++",
"++++++++++*#========#*++++++++++",
"++++++++++++>&{%%{&>++++++++++++",
"++++++++++++++++++++++++++++++++",
"++++++++++++++++++++++++++++++++",
"++++++++++++++++++++++++++++++++",
"++++++++++++++++++++++++++++++++",
"++++++++++++++++++++++++++++++++",
"++++++++++++++++++++++++++++++++",
"++++++++++++++++++++++++++++++++",
"++++++++++++++++++++++++++++++++"};
